<svg width="27" height="21" viewBox="0 0 27 21" fill="none" xmlns="http://www.w3.org/2000/svg">
<path d="M20.01 9.07764C21.0129 9.07764 21.9224 8.80841 22.7387 8.26995C22.7387 8.26995 26.3419 12.3846 15.7072 21C15.7072 21 31.3444 13.4615 25.8171 3.32284C25.8171 3.32284 24.4761 1.53918 23.5433 1.00072C22.6104 0.462261 21.6192 0.193031 20.5697 0.193031C19.7768 0.193031 18.9955 0.41739 18.2259 0.866107C17.4796 1.29239 16.8733 1.86451 16.4068 2.58245C15.9404 3.27797 15.7072 4.01835 15.7072 4.80361C15.7072 5.49912 15.9054 6.18341 16.3019 6.85649C16.7217 7.50713 17.2581 8.04559 17.9111 8.47187C18.5874 8.87572 19.2871 9.07764 20.01 9.07764Z" fill="#597DA3"/>
<path d="M4.30286 8.88461C5.30569 8.88461 6.21524 8.61538 7.0315 8.07692C7.0315 8.07692 10.6347 12.1916 0 20.807C0 20.807 15.6372 13.2685 10.11 3.12981C10.11 3.12981 8.76897 1.34615 7.8361 0.807691C6.90323 0.26923 5.91206 0 4.86258 0C4.06964 0 3.28837 0.224358 2.51875 0.673076C1.77245 1.09936 1.16609 1.67147 0.699657 2.38942C0.233222 3.08494 3.20275e-06 3.82532 3.20275e-06 4.61058C3.20275e-06 5.30609 0.198239 5.99038 0.594708 6.66346C1.0145 7.3141 1.5509 7.85256 2.20391 8.27884C2.88024 8.68269 3.57989 8.88461 4.30286 8.88461Z" fill="#597DA3"/>
</svg>
