<svg xmlns="http://www.w3.org/2000/svg" width="7" height="14" viewBox="0 0 7 14"><g><g><path fill="#fff" d="M2.413 9.537c.012-.687.091-1.23.238-1.629.146-.399.446-.84.898-1.326l1.153-1.17c.493-.549.74-1.138.74-1.767 0-.606-.162-1.081-.484-1.425-.323-.344-.793-.515-1.41-.515-.598 0-1.08.156-1.443.468-.364.313-.546.732-.546 1.259H-.07c.012-.938.35-1.694 1.017-2.27C1.613.586 2.48.298 3.549.298c1.11 0 1.973.293 2.593.88.619.587.929 1.391.929 2.414 0 1.01-.476 2.007-1.427 2.99l-.96.936c-.428.468-.642 1.141-.642 2.02zm-.07 2.758c0-.263.08-.484.242-.662.161-.178.4-.267.717-.267.317 0 .558.09.722.267a.939.939 0 0 1 .247.662c0 .263-.082.48-.247.653-.164.172-.405.258-.722.258-.317 0-.556-.086-.717-.258a.917.917 0 0 1-.242-.653z"/></g></g></svg>