<svg xmlns="http://www.w3.org/2000/svg" width="134" height="43" viewBox="0 0 134 43">
  <g id="logo" transform="translate(-434 -82.684)">
    <path id="Path_2" data-name="Path 2" d="M14.711-56.508a5.511,5.511,0,0,1-1.654,4.026,5.415,5.415,0,0,1-3.991,1.669H7.66v9.971H3.453V-69.316H9.082a5.38,5.38,0,0,1,3.959,1.69,5.505,5.505,0,0,1,1.67,4.005ZM10.505-55.09v-9.971a1.347,1.347,0,0,0-.436-.991,1.385,1.385,0,0,0-1-.428H7.66V-53.65H9.072a1.374,1.374,0,0,0,1.007-.428A1.386,1.386,0,0,0,10.505-55.09Zm17.609,8.553A5.527,5.527,0,0,1,26.475-42.5a5.4,5.4,0,0,1-3.99,1.658A5.4,5.4,0,0,1,18.5-42.5a5.526,5.526,0,0,1-1.639-4.036v-1.418h4.206q0,.293-.031.933T21-46.048q0,2.369,1.5,2.369A1.252,1.252,0,0,0,23.908-45.1v-7.3H22.5a5.423,5.423,0,0,1-4-1.658,5.518,5.518,0,0,1-1.644-4.036V-69.316h4.206v12.66a1.261,1.261,0,0,0,1.433,1.42h1.412V-69.316h4.206Zm14.063,0a5.519,5.519,0,0,1-1.65,4.026,5.392,5.392,0,0,1-3.98,1.669,5.4,5.4,0,0,1-3.99-1.658,5.527,5.527,0,0,1-1.639-4.036V-63.622a5.527,5.527,0,0,1,1.639-4.036,5.4,5.4,0,0,1,3.99-1.658,5.38,5.38,0,0,1,3.959,1.69,5.505,5.505,0,0,1,1.67,4.005V-62.2H37.97q0-.292.041-.907t.041-.949q0-2.42-1.516-2.42a1.356,1.356,0,0,0-1,.418,1.371,1.371,0,0,0-.415,1V-45.1a1.252,1.252,0,0,0,1.412,1.42q1.516,0,1.516-2.411,0-.4-.041-1.038t-.041-.828h4.206ZM56.26-40.842H52.053V-56.529l-.261-.005-2.584,7.111v8.581H45V-69.316h4.206v12.808h.268L52.053-63.6v-5.716H56.26Zm14.083,0H66.137V-66.479H63.291v25.637H59.085V-69.316H70.343Zm14.083-5.695A5.527,5.527,0,0,1,82.787-42.5a5.4,5.4,0,0,1-3.99,1.658,5.4,5.4,0,0,1-3.99-1.658,5.527,5.527,0,0,1-1.639-4.036V-63.622a5.527,5.527,0,0,1,1.639-4.036,5.4,5.4,0,0,1,3.99-1.658,5.4,5.4,0,0,1,3.99,1.658,5.527,5.527,0,0,1,1.639,4.036ZM80.22-45.1V-65.06a1.354,1.354,0,0,0-.426-1,1.39,1.39,0,0,0-1.007-.418,1.356,1.356,0,0,0-1,.418,1.37,1.37,0,0,0-.415,1V-45.1a1.252,1.252,0,0,0,1.412,1.42A1.261,1.261,0,0,0,80.22-45.1Zm17.155-21.38H93.849v25.637H89.643V-66.479H86.138v-2.837H97.375Zm11.547,25.637H99.066V-69.316h9.856v2.837h-5.65v9.992h5.65v2.837h-5.65v9.971h5.65Zm14.063,0h-4.206v-11.39a1.26,1.26,0,0,0-1.433-1.418h-1.412v12.808h-4.206V-69.316h4.206v12.829h1.412a1.39,1.39,0,0,0,1.007-.418,1.355,1.355,0,0,0,.426-1V-69.316h4.206v9.971a5.537,5.537,0,0,1-1.9,4.255,5.56,5.56,0,0,1,1.9,4.276Zm14.083,0h-4.206v-9.971h-2.846v9.971H125.81V-63.622a5.526,5.526,0,0,1,1.639-4.036,5.4,5.4,0,0,1,3.99-1.658,5.38,5.38,0,0,1,3.959,1.69,5.505,5.505,0,0,1,1.67,4.005ZM132.862-53.65V-65.061a1.347,1.347,0,0,0-.436-.991,1.385,1.385,0,0,0-1-.428,1.357,1.357,0,0,0-1,.417,1.369,1.369,0,0,0-.415,1V-53.65Z" transform="translate(430.733 152)" fill="#003a83"/>
    <path id="Path_1" data-name="Path 1" d="M1.328-10.509h1.1v1.741a.565.565,0,0,0,.39-.172,2.3,2.3,0,0,0,.275-.614,1.631,1.631,0,0,1,.464-.806,1.128,1.128,0,0,1,.661-.177q.126,0,.437.02l0,.746a1.159,1.159,0,0,0-.559.084,1.172,1.172,0,0,0-.264.526,1.052,1.052,0,0,1-.555.726,1.533,1.533,0,0,1,.885.927q.02.04.043.084L4.83-6.249H3.642L3.091-7.48A1.505,1.505,0,0,0,2.8-7.96a.552.552,0,0,0-.368-.106v1.817h-1.1Zm4.157,0H6.516v.626a1.555,1.555,0,0,1,.543-.522,1.474,1.474,0,0,1,.759-.2,1.58,1.58,0,0,1,1.235.582A2.385,2.385,0,0,1,9.561-8.4,2.457,2.457,0,0,1,9.05-6.744a1.581,1.581,0,0,1-1.239.592,1.386,1.386,0,0,1-.628-.14,2.122,2.122,0,0,1-.592-.481v2.146H5.485ZM6.579-8.451A1.665,1.665,0,0,0,6.859-7.39a.849.849,0,0,0,.681.343.793.793,0,0,0,.641-.315A1.646,1.646,0,0,0,8.436-8.4a1.562,1.562,0,0,0-.264-.995.81.81,0,0,0-.653-.325.842.842,0,0,0-.673.319A1.439,1.439,0,0,0,6.579-8.451Zm6.392.846,1.1.189a1.841,1.841,0,0,1-.671.941,1.943,1.943,0,0,1-1.147.323,1.855,1.855,0,0,1-1.613-.726,2.474,2.474,0,0,1-.413-1.468,2.381,2.381,0,0,1,.543-1.659,1.772,1.772,0,0,1,1.373-.6,1.838,1.838,0,0,1,1.471.628,2.817,2.817,0,0,1,.515,1.924h-2.77a1.154,1.154,0,0,0,.268.78A.829.829,0,0,0,12.267-7a.668.668,0,0,0,.437-.144A.9.9,0,0,0,12.971-7.6Zm.063-1.139a1.1,1.1,0,0,0-.248-.744.754.754,0,0,0-.574-.255.761.761,0,0,0-.6.269,1.053,1.053,0,0,0-.232.73Zm5.566,2.5H15.437v1.123h-.9V-7.172h.452a2.522,2.522,0,0,0,.468-1,11.015,11.015,0,0,0,.22-2.335h3.372v3.338H19.5v2.046h-.9Zm-.641-.923,0-2.411H16.625a4.562,4.562,0,0,1-.551,2.411Zm2.387-3.338h1.062v2.676l1.7-2.676h1.086v4.26H23.131V-8.973L21.408-6.249H20.346Zm4.6,0h3.781V-9.6H27.387v3.35H26.281V-9.6H24.944Zm4.193,2.07a2.341,2.341,0,0,1,.271-1.087,1.883,1.883,0,0,1,.769-.8,2.248,2.248,0,0,1,1.111-.277,2.065,2.065,0,0,1,1.554.628,2.192,2.192,0,0,1,.606,1.587,2.218,2.218,0,0,1-.612,1.6,2.048,2.048,0,0,1-1.54.636,2.388,2.388,0,0,1-1.1-.265,1.8,1.8,0,0,1-.793-.776A2.628,2.628,0,0,1,29.136-8.439Zm1.133.06a1.43,1.43,0,0,0,.3.971.93.93,0,0,0,.728.337.924.924,0,0,0,.726-.337,1.45,1.45,0,0,0,.293-.979,1.423,1.423,0,0,0-.293-.963.924.924,0,0,0-.726-.337.93.93,0,0,0-.728.337A1.43,1.43,0,0,0,30.269-8.379Zm4.169-2.13h2.42a1.85,1.85,0,0,1,1.113.277.975.975,0,0,1,.37.834.994.994,0,0,1-.2.622.965.965,0,0,1-.51.353,1.08,1.08,0,0,1,.645.405,1.093,1.093,0,0,1,.212.65,1.02,1.02,0,0,1-.358.808,1.573,1.573,0,0,1-1.058.311H34.439ZM35.552-8.74h.712a1.569,1.569,0,0,0,.746-.132.447.447,0,0,0,.23-.417.4.4,0,0,0-.214-.383,1.771,1.771,0,0,0-.761-.114h-.712Zm0,1.769h.873a1.527,1.527,0,0,0,.689-.116A.432.432,0,0,0,37.33-7.5a.435.435,0,0,0-.248-.431,2.581,2.581,0,0,0-.964-.118h-.567Zm4.661-2.238-1-.185a1.6,1.6,0,0,1,.582-.915,2.1,2.1,0,0,1,1.228-.3,2.6,2.6,0,0,1,1.1.179,1.106,1.106,0,0,1,.509.453,2.365,2.365,0,0,1,.148,1.009l-.012,1.316a4.656,4.656,0,0,0,.053.828,2.45,2.45,0,0,0,.2.572H41.924q-.043-.112-.106-.333-.028-.1-.039-.132a1.992,1.992,0,0,1-.606.421,1.707,1.707,0,0,1-.689.14,1.407,1.407,0,0,1-1.017-.357,1.2,1.2,0,0,1-.372-.9,1.23,1.23,0,0,1,.169-.644,1.113,1.113,0,0,1,.474-.433,3.652,3.652,0,0,1,.879-.263,5.93,5.93,0,0,0,1.074-.277v-.112a.59.59,0,0,0-.157-.463.929.929,0,0,0-.594-.138.78.78,0,0,0-.46.118A.823.823,0,0,0,40.213-9.209Zm1.479.915a6.8,6.8,0,0,1-.673.172,2,2,0,0,0-.6.2.472.472,0,0,0-.216.4.558.558,0,0,0,.173.409.6.6,0,0,0,.441.172.946.946,0,0,0,.57-.2.706.706,0,0,0,.264-.373,2.268,2.268,0,0,0,.043-.55Zm2.245-2.214h1.106v1.561h1.582v-1.561h1.109v4.26H46.625V-8.038H45.043v1.789H43.938Zm5,0H50v2.676l1.7-2.676h1.086v4.26H51.718V-8.973L50-6.249H48.933Zm7.513,2.9,1.1.189a1.841,1.841,0,0,1-.671.941,1.943,1.943,0,0,1-1.147.323,1.855,1.855,0,0,1-1.613-.726A2.474,2.474,0,0,1,53.7-8.347a2.381,2.381,0,0,1,.543-1.659,1.772,1.772,0,0,1,1.373-.6,1.838,1.838,0,0,1,1.471.628,2.817,2.817,0,0,1,.515,1.924h-2.77a1.154,1.154,0,0,0,.268.78A.829.829,0,0,0,55.742-7a.668.668,0,0,0,.437-.144A.9.9,0,0,0,56.446-7.6Zm.063-1.139a1.1,1.1,0,0,0-.248-.744.754.754,0,0,0-.574-.255.761.761,0,0,0-.6.269,1.053,1.053,0,0,0-.232.73Zm4.435-1.765h1.062v2.676l1.7-2.676h1.086v4.26H63.73V-8.973L62.007-6.249H60.945ZM72.033-9.25l-1.09.2a.812.812,0,0,0-.25-.5.745.745,0,0,0-.506-.168.819.819,0,0,0-.659.291,1.512,1.512,0,0,0-.246.973,1.75,1.75,0,0,0,.25,1.071.814.814,0,0,0,.671.313.736.736,0,0,0,.515-.183A1.107,1.107,0,0,0,71-7.882l1.086.189a1.973,1.973,0,0,1-.649,1.151,1.983,1.983,0,0,1-1.287.389,1.894,1.894,0,0,1-1.462-.59,2.314,2.314,0,0,1-.545-1.633,2.319,2.319,0,0,1,.547-1.643,1.923,1.923,0,0,1,1.479-.588,1.99,1.99,0,0,1,1.214.335A1.859,1.859,0,0,1,72.033-9.25ZM75.4-7.6l1.1.189a1.841,1.841,0,0,1-.671.941,1.943,1.943,0,0,1-1.147.323,1.855,1.855,0,0,1-1.613-.726,2.474,2.474,0,0,1-.413-1.468,2.381,2.381,0,0,1,.543-1.659,1.772,1.772,0,0,1,1.373-.6,1.838,1.838,0,0,1,1.471.628,2.817,2.817,0,0,1,.515,1.924h-2.77a1.154,1.154,0,0,0,.268.78A.829.829,0,0,0,74.7-7a.668.668,0,0,0,.437-.144A.9.9,0,0,0,75.4-7.6Zm.063-1.139a1.1,1.1,0,0,0-.248-.744.754.754,0,0,0-.574-.255.761.761,0,0,0-.6.269,1.053,1.053,0,0,0-.232.73Zm2.068-1.765h1.1v1.741a.565.565,0,0,0,.39-.172,2.3,2.3,0,0,0,.275-.614,1.631,1.631,0,0,1,.464-.806,1.128,1.128,0,0,1,.661-.177q.126,0,.437.02l0,.746a1.159,1.159,0,0,0-.559.084,1.172,1.172,0,0,0-.264.526,1.052,1.052,0,0,1-.555.726,1.533,1.533,0,0,1,.885.927q.02.04.043.084l.618,1.175H79.848L79.3-7.48A1.505,1.505,0,0,0,79-7.96a.552.552,0,0,0-.368-.106v1.817h-1.1Zm4.212,0h1.106V-8.74h1.109a4,4,0,0,1,1,.1,1.054,1.054,0,0,1,.582.415,1.225,1.225,0,0,1,.232.74,1.087,1.087,0,0,1-.415.929,2.066,2.066,0,0,1-1.245.311H81.747Zm1.106,3.546h1.031a.833.833,0,0,0,.62-.16.571.571,0,0,0,.136-.381A.432.432,0,0,0,84.4-7.93a2.064,2.064,0,0,0-.832-.116h-.72Zm3.929-3.546h1.106v1.721h.881a2.057,2.057,0,0,1,.608-1.318,1.932,1.932,0,0,1,1.395-.5,1.921,1.921,0,0,1,1.444.582,2.316,2.316,0,0,1,.563,1.677,2.784,2.784,0,0,1-.21,1.123,1.788,1.788,0,0,1-.643.776,1.968,1.968,0,0,1-1.129.295,1.894,1.894,0,0,1-1.5-.556,1.955,1.955,0,0,1-.531-1.185h-.881v1.645H86.782Zm3.974.782a.761.761,0,0,0-.671.3,1.7,1.7,0,0,0-.21.959A2,2,0,0,0,90.1-7.33a.811.811,0,0,0,.687.295.707.707,0,0,0,.637-.331,1.862,1.862,0,0,0,.212-.993,1.812,1.812,0,0,0-.23-1.089A.8.8,0,0,0,90.755-9.727Zm3-.782h1.031v.626a1.555,1.555,0,0,1,.543-.522,1.474,1.474,0,0,1,.759-.2,1.58,1.58,0,0,1,1.235.582A2.385,2.385,0,0,1,97.828-8.4a2.457,2.457,0,0,1-.511,1.659,1.581,1.581,0,0,1-1.239.592,1.385,1.385,0,0,1-.628-.14,2.122,2.122,0,0,1-.592-.481v2.146H93.752Zm1.094,2.058a1.665,1.665,0,0,0,.279,1.061.849.849,0,0,0,.681.343.793.793,0,0,0,.641-.315A1.646,1.646,0,0,0,96.7-8.4a1.562,1.562,0,0,0-.264-.995.81.81,0,0,0-.653-.325.842.842,0,0,0-.673.319A1.439,1.439,0,0,0,94.846-8.451Zm3.945-2.058h1.062v2.676l1.7-2.676h1.086v4.26h-1.062V-8.973L99.853-6.249H98.791Zm4.6,0h3.781V-9.6h-1.338v3.35h-1.106V-9.6h-1.338Zm4.527,0h1.062v2.676l1.7-2.676h1.086v4.26H110.7V-8.973l-1.723,2.724h-1.062ZM114.135-8v-.734a1.628,1.628,0,0,0,.417-.038.506.506,0,0,0,.246-.185.524.524,0,0,0,.116-.335.564.564,0,0,0-.144-.371.532.532,0,0,0-.431-.17.8.8,0,0,0-.393.1.87.87,0,0,0-.315.457l-.936-.2a1.317,1.317,0,0,1,.606-.842,2,2,0,0,1,1.058-.281,1.754,1.754,0,0,1,1.17.353,1.115,1.115,0,0,1,.415.887.842.842,0,0,1-.179.552,1.668,1.668,0,0,1-.565.407,1.4,1.4,0,0,1,.694.389.946.946,0,0,1,.23.65,1.063,1.063,0,0,1-.456.856,2.086,2.086,0,0,1-1.314.359,1.659,1.659,0,0,1-1.829-1.191l1.011-.189a.839.839,0,0,0,.807.626.72.72,0,0,0,.5-.166.509.509,0,0,0,.187-.391.458.458,0,0,0-.195-.391A.843.843,0,0,0,114.324-8Zm3.713-1.211-1-.185a1.6,1.6,0,0,1,.582-.915,2.1,2.1,0,0,1,1.228-.3,2.6,2.6,0,0,1,1.1.179,1.106,1.106,0,0,1,.509.453,2.366,2.366,0,0,1,.148,1.009L120.4-7.649a4.655,4.655,0,0,0,.053.828,2.45,2.45,0,0,0,.2.572h-1.094q-.043-.112-.106-.333-.028-.1-.039-.132a1.992,1.992,0,0,1-.606.421,1.707,1.707,0,0,1-.689.14A1.407,1.407,0,0,1,117.1-6.51a1.2,1.2,0,0,1-.372-.9,1.23,1.23,0,0,1,.169-.644,1.113,1.113,0,0,1,.474-.433,3.652,3.652,0,0,1,.879-.263,5.93,5.93,0,0,0,1.074-.277v-.112a.59.59,0,0,0-.157-.463.929.929,0,0,0-.594-.138.78.78,0,0,0-.46.118A.823.823,0,0,0,117.848-9.209Zm1.479.915a6.8,6.8,0,0,1-.673.172,2,2,0,0,0-.6.2.472.472,0,0,0-.216.4.558.558,0,0,0,.173.409.6.6,0,0,0,.441.172.946.946,0,0,0,.57-.2.706.706,0,0,0,.264-.373,2.268,2.268,0,0,0,.043-.55Zm2.249-2.214h1.106v3.35h1.578v-3.35h1.106v3.35h.437v2.034h-.893V-6.249h-3.332Zm5.078,0h1.062v2.676l1.7-2.676H130.5v4.26H129.44V-8.973l-1.723,2.724h-1.062Zm8.674,0v4.26h-1.1V-8.018h-.1a1.113,1.113,0,0,0-.525.094,1.261,1.261,0,0,0-.372.4l-.067.084-.728,1.191H131.15l.791-1.236q.338-.53.614-.61a1.042,1.042,0,0,1-.753-.359,1.237,1.237,0,0,1-.289-.844A1.265,1.265,0,0,1,131.7-10a.957.957,0,0,1,.508-.4,3.146,3.146,0,0,1,.942-.106Zm-1.1.726h-.791a1.1,1.1,0,0,0-.614.126.479.479,0,0,0-.177.419.462.462,0,0,0,.2.421,1.267,1.267,0,0,0,.657.128h.724Z" transform="translate(432.672 130.312)" fill="#003a83"/>
    <rect id="Rectangle_1" data-name="Rectangle 1" width="134" height="2.054" transform="translate(434 114.577)" fill="#d22205"/>
  </g>
</svg>
